# xmcd
#
# Track frame offsets: 
#        150
#        10840
#        20408
#        31335
#        39645
#        49598
#        60853
#        72094
#        82760
#        93256
#        104415
#        114219
#        125502
#        131903
#        141840
#        153733
#        162143
#        172095
#        180701
#        191443
#        200500
#        210185
#        220621
#        229735
#        241080
#        253140
#        262167
#        271820
#        282654
#        292819
#
# Disc length: 4071 seconds
#
# Revision: 0
# Processed by: cddbd v1.5.2PL0 Copyright (c) Steve Scherf et al.
# Submitted via: ExactAudioCopy v1.3
#
DISCID=a30fe51e
DTITLE=Clarence 'Frogman' Henry - You Always Hurt the One You Love - T
DTITLE=he Complete Singles As and Bs 1956-1962
DYEAR=2016
DGENRE=R&B
TTITLE0=Ain't Got No Home
TTITLE1=Troubles, Troubles
TTITLE2=Lonely Tramp
TTITLE3=I'm A Country Boy
TTITLE4=It Won't Be Long
TTITLE5=I Found A Home
TTITLE6=I'm In Love
TTITLE7=Baby, Baby Please
TTITLE8=(I Don't Know Why I Love You) But I Do
TTITLE9=Just My Baby And Me
TTITLE10=Little Suzy
TTITLE11=You Always Hurt The One You Love
TTITLE12=Why Can't You
TTITLE13=Lonely Street
TTITLE14=Standing In The Need Of Love
TTITLE15=On Bended Knees
TTITLE16=I Wish I Could Say The Same
TTITLE17=A Little Too Much
TTITLE18=Dream Myself A Sweetheart
TTITLE19=Lost Without You
TTITLE20=The Jealous Kind
TTITLE21=Come On And Dance
TTITLE22=Never, Never
TTITLE23=Oh Mickey
TTITLE24=Live It Right
TTITLE25=I Want To Be A Movie Star
TTITLE26=Steady Date
TTITLE27=Oh Why
TTITLE28=I Love You Yes I Do
TTITLE29=Your Picture
EXTD=
EXTT0=
EXTT1=
EXTT2=
EXTT3=
EXTT4=
EXTT5=
EXTT6=
EXTT7=
EXTT8=
EXTT9=
EXTT10=
EXTT11=
EXTT12=
EXTT13=
EXTT14=
EXTT15=
EXTT16=
EXTT17=
EXTT18=
EXTT19=
EXTT20=
EXTT21=
EXTT22=
EXTT23=
EXTT24=
EXTT25=
EXTT26=
EXTT27=
EXTT28=
EXTT29=
PLAYORDER=
